<?xml version="1.0" encoding="utf-8" standalone="no"?>
<!DOCTYPE svg PUBLIC "-//W3C//DTD SVG 1.1//EN"
  "http://www.w3.org/Graphics/SVG/1.1/DTD/svg11.dtd">
<svg xmlns:xlink="http://www.w3.org/1999/xlink" width="576pt" height="360pt" viewBox="0 0 576 360" xmlns="http://www.w3.org/2000/svg" version="1.1">
 <metadata>
  <rdf:RDF xmlns:dc="http://purl.org/dc/elements/1.1/" xmlns:cc="http://creativecommons.org/ns#" xmlns:rdf="http://www.w3.org/1999/02/22-rdf-syntax-ns#">
   <cc:Work>
    <dc:type rdf:resource="http://purl.org/dc/dcmitype/StillImage"/>
    <dc:date>2025-02-22T22:53:54.988301</dc:date>
    <dc:format>image/svg+xml</dc:format>
    <dc:creator>
     <cc:Agent>
      <dc:title>Matplotlib v3.9.2, https://matplotlib.org/</dc:title>
     </cc:Agent>
    </dc:creator>
   </cc:Work>
  </rdf:RDF>
 </metadata>
 <defs>
  <style type="text/css">*{stroke-linejoin: round; stroke-linecap: butt}</style>
 </defs>
 <g id="figure_1">
  <g id="patch_1">
   <path d="M 0 360 
L 576 360 
L 576 0 
L 0 0 
z
" style="fill: #ffffff"/>
  </g>
  <g id="axes_1">
   <g id="patch_2">
    <path d="M 72 320.4 
L 518.4 320.4 
L 518.4 43.2 
L 72 43.2 
z
" style="fill: #ffffff"/>
   </g>
   <g id="PolyCollection_1">
    <defs>
     <path id="m7afe0170b7" d="M 109.250018 -81.505877 
L 109.149982 -81.505877 
L 109.102378 -83.755312 
L 109.018339 -86.004748 
L 108.877592 -88.254184 
L 108.654078 -90.503619 
L 108.317691 -92.753055 
L 107.838124 -95.00249 
L 107.190677 -97.251926 
L 106.362937 -99.501361 
L 105.360481 -101.750797 
L 104.209453 -104.000233 
L 102.954485 -106.249668 
L 101.651821 -108.499104 
L 100.35915 -110.748539 
L 99.124915 -112.997975 
L 97.980124 -115.247411 
L 96.934913 -117.496846 
L 95.980614 -119.746282 
L 95.096374 -121.995717 
L 94.257966 -124.245153 
L 93.445809 -126.494589 
L 92.64959 -128.744024 
L 91.868206 -130.99346 
L 91.105593 -133.242895 
L 90.364611 -135.492331 
L 89.641817 -137.741766 
L 88.925459 -139.991202 
L 88.197524 -142.240638 
L 87.438984 -144.490073 
L 86.636183 -146.739509 
L 85.78597 -148.988944 
L 84.897856 -151.23838 
L 83.992686 -153.487816 
L 83.098629 -155.737251 
L 82.246237 -157.986687 
L 81.464496 -160.236122 
L 80.779154 -162.485558 
L 80.21329 -164.734994 
L 79.788645 -166.984429 
L 79.52556 -169.233865 
L 79.44 -171.4833 
L 79.538102 -173.732736 
L 79.810865 -175.982171 
L 80.232504 -178.231607 
L 80.764766 -180.481043 
L 81.366481 -182.730478 
L 82.004579 -184.979914 
L 82.661621 -187.229349 
L 83.336342 -189.478785 
L 84.037195 -191.728221 
L 84.772235 -193.977656 
L 85.540231 -196.227092 
L 86.326843 -198.476527 
L 87.106932 -200.725963 
L 87.851301 -202.975399 
L 88.534688 -205.224834 
L 89.142203 -207.47427 
L 89.672722 -209.723705 
L 90.139165 -211.973141 
L 90.566202 -214.222576 
L 90.985948 -216.472012 
L 91.432087 -218.721448 
L 91.933086 -220.970883 
L 92.505818 -223.220319 
L 93.151468 -225.469754 
L 93.855472 -227.71919 
L 94.592069 -229.968626 
L 95.332245 -232.218061 
L 96.052217 -234.467497 
L 96.739229 -236.716932 
L 97.392597 -238.966368 
L 98.020157 -241.215804 
L 98.632233 -243.465239 
L 99.236018 -245.714675 
L 99.83251 -247.96411 
L 100.41666 -250.213546 
L 100.979998 -252.462981 
L 101.514436 -254.712417 
L 102.015942 -256.961853 
L 102.487098 -259.211288 
L 102.937763 -261.460724 
L 103.383405 -263.710159 
L 103.84124 -265.959595 
L 104.325131 -268.209031 
L 104.84091 -270.458466 
L 105.38385 -272.707902 
L 105.939318 -274.957337 
L 106.48633 -277.206773 
L 107.002632 -279.456209 
L 107.469463 -281.705644 
L 107.87456 -283.95508 
L 108.212917 -286.204515 
L 108.485745 -288.453951 
L 108.698556 -290.703386 
L 108.859212 -292.952822 
L 108.976446 -295.202258 
L 109.058909 -297.451693 
L 109.114616 -299.701129 
L 109.150612 -301.950564 
L 109.172774 -304.2 
L 109.227226 -304.2 
L 109.227226 -304.2 
L 109.249388 -301.950564 
L 109.285384 -299.701129 
L 109.341091 -297.451693 
L 109.423554 -295.202258 
L 109.540788 -292.952822 
L 109.701444 -290.703386 
L 109.914255 -288.453951 
L 110.187083 -286.204515 
L 110.52544 -283.95508 
L 110.930537 -281.705644 
L 111.397368 -279.456209 
L 111.91367 -277.206773 
L 112.460682 -274.957337 
L 113.01615 -272.707902 
L 113.55909 -270.458466 
L 114.074869 -268.209031 
L 114.55876 -265.959595 
L 115.016595 -263.710159 
L 115.462237 -261.460724 
L 115.912902 -259.211288 
L 116.384058 -256.961853 
L 116.885564 -254.712417 
L 117.420002 -252.462981 
L 117.98334 -250.213546 
L 118.56749 -247.96411 
L 119.163982 -245.714675 
L 119.767767 -243.465239 
L 120.379843 -241.215804 
L 121.007403 -238.966368 
L 121.660771 -236.716932 
L 122.347783 -234.467497 
L 123.067755 -232.218061 
L 123.807931 -229.968626 
L 124.544528 -227.71919 
L 125.248532 -225.469754 
L 125.894182 -223.220319 
L 126.466914 -220.970883 
L 126.967913 -218.721448 
L 127.414052 -216.472012 
L 127.833798 -214.222576 
L 128.260835 -211.973141 
L 128.727278 -209.723705 
L 129.257797 -207.47427 
L 129.865312 -205.224834 
L 130.548699 -202.975399 
L 131.293068 -200.725963 
L 132.073157 -198.476527 
L 132.859769 -196.227092 
L 133.627765 -193.977656 
L 134.362805 -191.728221 
L 135.063658 -189.478785 
L 135.738379 -187.229349 
L 136.395421 -184.979914 
L 137.033519 -182.730478 
L 137.635234 -180.481043 
L 138.167496 -178.231607 
L 138.589135 -175.982171 
L 138.861898 -173.732736 
L 138.96 -171.4833 
L 138.87444 -169.233865 
L 138.611355 -166.984429 
L 138.18671 -164.734994 
L 137.620846 -162.485558 
L 136.935504 -160.236122 
L 136.153763 -157.986687 
L 135.301371 -155.737251 
L 134.407314 -153.487816 
L 133.502144 -151.23838 
L 132.61403 -148.988944 
L 131.763817 -146.739509 
L 130.961016 -144.490073 
L 130.202476 -142.240638 
L 129.474541 -139.991202 
L 128.758183 -137.741766 
L 128.035389 -135.492331 
L 127.294407 -133.242895 
L 126.531794 -130.99346 
L 125.75041 -128.744024 
L 124.954191 -126.494589 
L 124.142034 -124.245153 
L 123.303626 -121.995717 
L 122.419386 -119.746282 
L 121.465087 -117.496846 
L 120.419876 -115.247411 
L 119.275085 -112.997975 
L 118.04085 -110.748539 
L 116.748179 -108.499104 
L 115.445515 -106.249668 
L 114.190547 -104.000233 
L 113.039519 -101.750797 
L 112.037063 -99.501361 
L 111.209323 -97.251926 
L 110.561876 -95.00249 
L 110.082309 -92.753055 
L 109.745922 -90.503619 
L 109.522408 -88.254184 
L 109.381661 -86.004748 
L 109.297622 -83.755312 
L 109.250018 -81.505877 
z
" style="stroke: #3c3c3c; stroke-width: 1.25"/>
    </defs>
    <g clip-path="url(#pe61a4fe392)">
     <use xlink:href="#m7afe0170b7" x="0" y="360" style="fill: #597dbf; stroke: #3c3c3c; stroke-width: 1.25"/>
    </g>
   </g>
   <g id="PolyCollection_2">
    <defs>
     <path id="m8580511aff" d="M 183.672045 -81.7537 
L 183.527955 -81.7537 
L 183.465919 -83.951048 
L 183.362169 -86.148396 
L 183.197529 -88.345744 
L 182.949567 -90.543092 
L 182.595112 -92.74044 
L 182.114186 -94.937788 
L 181.494804 -97.135137 
L 180.737422 -99.332485 
L 179.857461 -101.529833 
L 178.88448 -103.727181 
L 177.857373 -105.924529 
L 176.816371 -108.121877 
L 175.793963 -110.319225 
L 174.807702 -112.516573 
L 173.857528 -114.713921 
L 172.928794 -116.911269 
L 172.000112 -119.108617 
L 171.053189 -121.305965 
L 170.08101 -123.503313 
L 169.091252 -125.700661 
L 168.103678 -127.898009 
L 167.14262 -130.095358 
L 166.227573 -132.292706 
L 165.3657 -134.490054 
L 164.549293 -136.687402 
L 163.759213 -138.88475 
L 162.972852 -141.082098 
L 162.173212 -143.279446 
L 161.355178 -145.476794 
L 160.52639 -147.674142 
L 159.702724 -149.87149 
L 158.900982 -152.068838 
L 158.132656 -154.266186 
L 157.401858 -156.463534 
L 156.708133 -158.660882 
L 156.052338 -160.858231 
L 155.442365 -163.055579 
L 154.895744 -165.252927 
L 154.437828 -167.450275 
L 154.096182 -169.647623 
L 153.893261 -171.844971 
L 153.84 -174.042319 
L 153.932583 -176.239667 
L 154.153541 -178.437015 
L 154.476847 -180.634363 
L 154.875246 -182.831711 
L 155.327274 -185.029059 
L 155.821604 -187.226407 
L 156.357533 -189.423755 
L 156.941929 -191.621103 
L 157.584214 -193.818452 
L 158.291315 -196.0158 
L 159.064148 -198.213148 
L 159.896263 -200.410496 
L 160.774409 -202.607844 
L 161.680321 -204.805192 
L 162.592979 -207.00254 
L 163.490965 -209.199888 
L 164.354758 -211.397236 
L 165.168876 -213.594584 
L 165.923537 -215.791932 
L 166.615357 -217.98928 
L 167.246775 -220.186628 
L 167.824351 -222.383976 
L 168.356662 -224.581324 
L 168.852663 -226.778673 
L 169.321072 -228.976021 
L 169.770662 -231.173369 
L 170.210767 -233.370717 
L 170.651181 -235.568065 
L 171.101095 -237.765413 
L 171.567374 -239.962761 
L 172.053083 -242.160109 
L 172.557191 -244.357457 
L 173.075894 -246.554805 
L 173.60514 -248.752153 
L 174.1432 -250.949501 
L 174.691965 -253.146849 
L 175.256128 -255.344197 
L 175.840479 -257.541545 
L 176.44651 -259.738894 
L 177.070012 -261.936242 
L 177.700924 -264.13359 
L 178.325643 -266.330938 
L 178.930788 -268.528286 
L 179.506712 -270.725634 
L 180.049183 -272.922982 
L 180.55858 -275.12033 
L 181.037158 -277.317678 
L 181.48583 -279.515026 
L 181.902066 -281.712374 
L 182.279819 -283.909722 
L 182.611382 -286.10707 
L 182.890175 -288.304418 
L 183.113167 -290.501766 
L 183.282013 -292.699115 
L 183.402663 -294.896463 
L 183.483863 -297.093811 
L 183.535275 -299.291159 
L 183.664725 -299.291159 
L 183.664725 -299.291159 
L 183.716137 -297.093811 
L 183.797337 -294.896463 
L 183.917987 -292.699115 
L 184.086833 -290.501766 
L 184.309825 -288.304418 
L 184.588618 -286.10707 
L 184.920181 -283.909722 
L 185.297934 -281.712374 
L 185.71417 -279.515026 
L 186.162842 -277.317678 
L 186.64142 -275.12033 
L 187.150817 -272.922982 
L 187.693288 -270.725634 
L 188.269212 -268.528286 
L 188.874357 -266.330938 
L 189.499076 -264.13359 
L 190.129988 -261.936242 
L 190.75349 -259.738894 
L 191.359521 -257.541545 
L 191.943872 -255.344197 
L 192.508035 -253.146849 
L 193.0568 -250.949501 
L 193.59486 -248.752153 
L 194.124106 -246.554805 
L 194.642809 -244.357457 
L 195.146917 -242.160109 
L 195.632626 -239.962761 
L 196.098905 -237.765413 
L 196.548819 -235.568065 
L 196.989233 -233.370717 
L 197.429338 -231.173369 
L 197.878928 -228.976021 
L 198.347337 -226.778673 
L 198.843338 -224.581324 
L 199.375649 -222.383976 
L 199.953225 -220.186628 
L 200.584643 -217.98928 
L 201.276463 -215.791932 
L 202.031124 -213.594584 
L 202.845242 -211.397236 
L 203.709035 -209.199888 
L 204.607021 -207.00254 
L 205.519679 -204.805192 
L 206.425591 -202.607844 
L 207.303737 -200.410496 
L 208.135852 -198.213148 
L 208.908685 -196.0158 
L 209.615786 -193.818452 
L 210.258071 -191.621103 
L 210.842467 -189.423755 
L 211.378396 -187.226407 
L 211.872726 -185.029059 
L 212.324754 -182.831711 
L 212.723153 -180.634363 
L 213.046459 -178.437015 
L 213.267417 -176.239667 
L 213.36 -174.042319 
L 213.306739 -171.844971 
L 213.103818 -169.647623 
L 212.762172 -167.450275 
L 212.304256 -165.252927 
L 211.757635 -163.055579 
L 211.147662 -160.858231 
L 210.491867 -158.660882 
L 209.798142 -156.463534 
L 209.067344 -154.266186 
L 208.299018 -152.068838 
L 207.497276 -149.87149 
L 206.67361 -147.674142 
L 205.844822 -145.476794 
L 205.026788 -143.279446 
L 204.227148 -141.082098 
L 203.440787 -138.88475 
L 202.650707 -136.687402 
L 201.8343 -134.490054 
L 200.972427 -132.292706 
L 200.05738 -130.095358 
L 199.096322 -127.898009 
L 198.108748 -125.700661 
L 197.11899 -123.503313 
L 196.146811 -121.305965 
L 195.199888 -119.108617 
L 194.271206 -116.911269 
L 193.342472 -114.713921 
L 192.392298 -112.516573 
L 191.406037 -110.319225 
L 190.383629 -108.121877 
L 189.342627 -105.924529 
L 188.31552 -103.727181 
L 187.342539 -101.529833 
L 186.462578 -99.332485 
L 185.705196 -97.135137 
L 185.085814 -94.937788 
L 184.604888 -92.74044 
L 184.250433 -90.543092 
L 184.002471 -88.345744 
L 183.837831 -86.148396 
L 183.734081 -83.951048 
L 183.672045 -81.7537 
z
" style="stroke: #3c3c3c; stroke-width: 1.25"/>
    </defs>
    <g clip-path="url(#pe61a4fe392)">
     <use xlink:href="#m8580511aff" x="0" y="360" style="fill: #d98b5f; stroke: #3c3c3c; stroke-width: 1.25"/>
    </g>
   </g>
   <g id="PolyCollection_3">
    <defs>
     <path id="mf94149fa7f" d="M 258.57943 -52.884642 
L 257.42057 -52.884642 
L 256.995362 -54.234946 
L 256.339471 -55.585251 
L 255.381321 -56.935556 
L 254.05587 -58.28586 
L 252.319806 -59.636165 
L 250.167212 -60.98647 
L 247.641148 -62.336774 
L 244.836666 -63.687079 
L 241.892623 -65.037383 
L 238.972975 -66.387688 
L 236.241685 -67.737993 
L 233.837607 -69.088297 
L 231.855655 -70.438602 
L 230.33823 -71.788906 
L 229.277409 -73.139211 
L 228.625252 -74.489516 
L 228.307976 -75.83982 
L 228.24 -77.190125 
L 228.335419 -78.54043 
L 228.516195 -79.890734 
L 228.717561 -81.241039 
L 228.89133 -82.591343 
L 229.007512 -83.941648 
L 229.054162 -85.291953 
L 229.035344 -86.642257 
L 228.967375 -87.992562 
L 228.874008 -89.342866 
L 228.781499 -90.693171 
L 228.714473 -92.043476 
L 228.693125 -93.39378 
L 228.731846 -94.744085 
L 228.838981 -96.09439 
L 229.017345 -97.444694 
L 229.26519 -98.794999 
L 229.577474 -100.145303 
L 229.947296 -101.495608 
L 230.367368 -102.845913 
L 230.831235 -104.196217 
L 231.334053 -105.546522 
L 231.872798 -106.896827 
L 232.445993 -108.247131 
L 233.053138 -109.597436 
L 233.693997 -110.94774 
L 234.367794 -112.298045 
L 235.072358 -113.64835 
L 235.803299 -114.998654 
L 236.553464 -116.348959 
L 237.312949 -117.699263 
L 238.069789 -119.049568 
L 238.811195 -120.399873 
L 239.524934 -121.750177 
L 240.200454 -123.100482 
L 240.829614 -124.450787 
L 241.407186 -125.801091 
L 241.931425 -127.151396 
L 242.404868 -128.5017 
L 242.835065 -129.852005 
L 243.234656 -131.20231 
L 243.62022 -132.552614 
L 244.009747 -133.902919 
L 244.419255 -135.253223 
L 244.85955 -136.603528 
L 245.334176 -137.953833 
L 245.83919 -139.304137 
L 246.364778 -140.654442 
L 246.898106 -142.004747 
L 247.426586 -143.355051 
L 247.94073 -144.705356 
L 248.436034 -146.05566 
L 248.913637 -147.405965 
L 249.379724 -148.75627 
L 249.843901 -150.106574 
L 250.316869 -151.456879 
L 250.807878 -152.807183 
L 251.322455 -154.157488 
L 251.860856 -155.507793 
L 252.41757 -156.858097 
L 252.981966 -158.208402 
L 253.53997 -159.558707 
L 254.07643 -160.909011 
L 254.577669 -162.259316 
L 255.033688 -163.60962 
L 255.439545 -164.959925 
L 255.795592 -166.31023 
L 256.106571 -167.660534 
L 256.379844 -169.010839 
L 256.623276 -170.361143 
L 256.843363 -171.711448 
L 257.044101 -173.061753 
L 257.22679 -174.412057 
L 257.390663 -175.762362 
L 257.533994 -177.112667 
L 257.655246 -178.462971 
L 257.753907 -179.813276 
L 257.830849 -181.16358 
L 257.888233 -182.513885 
L 257.929107 -183.86419 
L 257.956886 -185.214494 
L 257.974889 -186.564799 
L 258.025111 -186.564799 
L 258.025111 -186.564799 
L 258.043114 -185.214494 
L 258.070893 -183.86419 
L 258.111767 -182.513885 
L 258.169151 -181.16358 
L 258.246093 -179.813276 
L 258.344754 -178.462971 
L 258.466006 -177.112667 
L 258.609337 -175.762362 
L 258.77321 -174.412057 
L 258.955899 -173.061753 
L 259.156637 -171.711448 
L 259.376724 -170.361143 
L 259.620156 -169.010839 
L 259.893429 -167.660534 
L 260.204408 -166.31023 
L 260.560455 -164.959925 
L 260.966312 -163.60962 
L 261.422331 -162.259316 
L 261.92357 -160.909011 
L 262.46003 -159.558707 
L 263.018034 -158.208402 
L 263.58243 -156.858097 
L 264.139144 -155.507793 
L 264.677545 -154.157488 
L 265.192122 -152.807183 
L 265.683131 -151.456879 
L 266.156099 -150.106574 
L 266.620276 -148.75627 
L 267.086363 -147.405965 
L 267.563966 -146.05566 
L 268.05927 -144.705356 
L 268.573414 -143.355051 
L 269.101894 -142.004747 
L 269.635222 -140.654442 
L 270.16081 -139.304137 
L 270.665824 -137.953833 
L 271.14045 -136.603528 
L 271.580745 -135.253223 
L 271.990253 -133.902919 
L 272.37978 -132.552614 
L 272.765344 -131.20231 
L 273.164935 -129.852005 
L 273.595132 -128.5017 
L 274.068575 -127.151396 
L 274.592814 -125.801091 
L 275.170386 -124.450787 
L 275.799546 -123.100482 
L 276.475066 -121.750177 
L 277.188805 -120.399873 
L 277.930211 -119.049568 
L 278.687051 -117.699263 
L 279.446536 -116.348959 
L 280.196701 -114.998654 
L 280.927642 -113.64835 
L 281.632206 -112.298045 
L 282.306003 -110.94774 
L 282.946862 -109.597436 
L 283.554007 -108.247131 
L 284.127202 -106.896827 
L 284.665947 -105.546522 
L 285.168765 -104.196217 
L 285.632632 -102.845913 
L 286.052704 -101.495608 
L 286.422526 -100.145303 
L 286.73481 -98.794999 
L 286.982655 -97.444694 
L 287.161019 -96.09439 
L 287.268154 -94.744085 
L 287.306875 -93.39378 
L 287.285527 -92.043476 
L 287.218501 -90.693171 
L 287.125992 -89.342866 
L 287.032625 -87.992562 
L 286.964656 -86.642257 
L 286.945838 -85.291953 
L 286.992488 -83.941648 
L 287.10867 -82.591343 
L 287.282439 -81.241039 
L 287.483805 -79.890734 
L 287.664581 -78.54043 
L 287.76 -77.190125 
L 287.692024 -75.83982 
L 287.374748 -74.489516 
L 286.722591 -73.139211 
L 285.66177 -71.788906 
L 284.144345 -70.438602 
L 282.162393 -69.088297 
L 279.758315 -67.737993 
L 277.027025 -66.387688 
L 274.107377 -65.037383 
L 271.163334 -63.687079 
L 268.358852 -62.336774 
L 265.832788 -60.98647 
L 263.680194 -59.636165 
L 261.94413 -58.28586 
L 260.618679 -56.935556 
L 259.660529 -55.585251 
L 259.004638 -54.234946 
L 258.57943 -52.884642 
z
" style="stroke: #3c3c3c; stroke-width: 1.25"/>
    </defs>
    <g clip-path="url(#pe61a4fe392)">
     <use xlink:href="#mf94149fa7f" x="0" y="360" style="fill: #75bf71; stroke: #3c3c3c; stroke-width: 1.25"/>
    </g>
   </g>
   <g id="PolyCollection_4">
    <defs>
     <path id="m871b5d5e5a" d="M 332.930245 -53.002276 
L 331.869755 -53.002276 
L 331.473099 -54.336008 
L 330.856923 -55.66974 
L 329.951372 -57.003473 
L 328.692436 -58.337205 
L 327.036916 -59.670938 
L 324.977907 -61.00467 
L 322.556195 -62.338403 
L 319.862942 -63.672135 
L 317.031005 -65.005867 
L 314.215673 -66.3396 
L 311.569335 -67.673332 
L 309.216908 -69.007065 
L 307.238767 -70.340797 
L 305.665198 -71.67453 
L 304.482393 -73.008262 
L 303.646295 -74.341995 
L 303.098777 -75.675727 
L 302.781132 -77.009459 
L 302.642057 -78.343192 
L 302.64 -79.676924 
L 302.741672 -81.010657 
L 302.919159 -82.344389 
L 303.14754 -83.678122 
L 303.403897 -85.011854 
L 303.667596 -86.345586 
L 303.921231 -87.679319 
L 304.151516 -89.013051 
L 304.349659 -90.346784 
L 304.511074 -91.680516 
L 304.634673 -93.014249 
L 304.722202 -94.347981 
L 304.778181 -95.681713 
L 304.810739 -97.015446 
L 304.833191 -98.349178 
L 304.865525 -99.682911 
L 304.93455 -101.016643 
L 305.071494 -102.350376 
L 305.306615 -103.684108 
L 305.661752 -105.017841 
L 306.143087 -106.351573 
L 306.737103 -107.685305 
L 307.412066 -109.019038 
L 308.125478 -110.35277 
L 308.835515 -111.686503 
L 309.512538 -113.020235 
L 310.14649 -114.353968 
L 310.747461 -115.6877 
L 311.339472 -117.021432 
L 311.950165 -118.355165 
L 312.600557 -119.688897 
L 313.298631 -121.02263 
L 314.038608 -122.356362 
L 314.805295 -123.690095 
L 315.58093 -125.023827 
L 316.351289 -126.357559 
L 317.108548 -127.691292 
L 317.850138 -129.025024 
L 318.574725 -130.358757 
L 319.277708 -131.692489 
L 319.948724 -133.026222 
L 320.572574 -134.359954 
L 321.133295 -135.693687 
L 321.619639 -137.027419 
L 322.029581 -138.361151 
L 322.372054 -139.694884 
L 322.665344 -141.028616 
L 322.932969 -142.362349 
L 323.19865 -143.696081 
L 323.482044 -145.029814 
L 323.796256 -146.363546 
L 324.147396 -147.697278 
L 324.535759 -149.031011 
L 324.957895 -150.364743 
L 325.408792 -151.698476 
L 325.883508 -153.032208 
L 326.377838 -154.365941 
L 326.887925 -155.699673 
L 327.409125 -157.033405 
L 327.934758 -158.367138 
L 328.455496 -159.70087 
L 328.959881 -161.034603 
L 329.435968 -162.368335 
L 329.873543 -163.702068 
L 330.266054 -165.0358 
L 330.611502 -166.369532 
L 330.912009 -167.703265 
L 331.172344 -169.036997 
L 331.398081 -170.37073 
L 331.59408 -171.704462 
L 331.763738 -173.038195 
L 331.909037 -174.371927 
L 332.031118 -175.70566 
L 332.130997 -177.039392 
L 332.210109 -178.373124 
L 332.270529 -179.706857 
L 332.314898 -181.040589 
L 332.346165 -182.374322 
L 332.367278 -183.708054 
L 332.380921 -185.041787 
L 332.419079 -185.041787 
L 332.419079 -185.041787 
L 332.432722 -183.708054 
L 332.453835 -182.374322 
L 332.485102 -181.040589 
L 332.529471 -179.706857 
L 332.589891 -178.373124 
L 332.669003 -177.039392 
L 332.768882 -175.70566 
L 332.890963 -174.371927 
L 333.036262 -173.038195 
L 333.20592 -171.704462 
L 333.401919 -170.37073 
L 333.627656 -169.036997 
L 333.887991 -167.703265 
L 334.188498 -166.369532 
L 334.533946 -165.0358 
L 334.926457 -163.702068 
L 335.364032 -162.368335 
L 335.840119 -161.034603 
L 336.344504 -159.70087 
L 336.865242 -158.367138 
L 337.390875 -157.033405 
L 337.912075 -155.699673 
L 338.422162 -154.365941 
L 338.916492 -153.032208 
L 339.391208 -151.698476 
L 339.842105 -150.364743 
L 340.264241 -149.031011 
L 340.652604 -147.697278 
L 341.003744 -146.363546 
L 341.317956 -145.029814 
L 341.60135 -143.696081 
L 341.867031 -142.362349 
L 342.134656 -141.028616 
L 342.427946 -139.694884 
L 342.770419 -138.361151 
L 343.180361 -137.027419 
L 343.666705 -135.693687 
L 344.227426 -134.359954 
L 344.851276 -133.026222 
L 345.522292 -131.692489 
L 346.225275 -130.358757 
L 346.949862 -129.025024 
L 347.691452 -127.691292 
L 348.448711 -126.357559 
L 349.21907 -125.023827 
L 349.994705 -123.690095 
L 350.761392 -122.356362 
L 351.501369 -121.02263 
L 352.199443 -119.688897 
L 352.849835 -118.355165 
L 353.460528 -117.021432 
L 354.052539 -115.6877 
L 354.65351 -114.353968 
L 355.287462 -113.020235 
L 355.964485 -111.686503 
L 356.674522 -110.35277 
L 357.387934 -109.019038 
L 358.062897 -107.685305 
L 358.656913 -106.351573 
L 359.138248 -105.017841 
L 359.493385 -103.684108 
L 359.728506 -102.350376 
L 359.86545 -101.016643 
L 359.934475 -99.682911 
L 359.966809 -98.349178 
L 359.989261 -97.015446 
L 360.021819 -95.681713 
L 360.077798 -94.347981 
L 360.165327 -93.014249 
L 360.288926 -91.680516 
L 360.450341 -90.346784 
L 360.648484 -89.013051 
L 360.878769 -87.679319 
L 361.132404 -86.345586 
L 361.396103 -85.011854 
L 361.65246 -83.678122 
L 361.880841 -82.344389 
L 362.058328 -81.010657 
L 362.16 -79.676924 
L 362.157943 -78.343192 
L 362.018868 -77.009459 
L 361.701223 -75.675727 
L 361.153705 -74.341995 
L 360.317607 -73.008262 
L 359.134802 -71.67453 
L 357.561233 -70.340797 
L 355.583092 -69.007065 
L 353.230665 -67.673332 
L 350.584327 -66.3396 
L 347.768995 -65.005867 
L 344.937058 -63.672135 
L 342.243805 -62.338403 
L 339.822093 -61.00467 
L 337.763084 -59.670938 
L 336.107564 -58.337205 
L 334.848628 -57.003473 
L 333.943077 -55.66974 
L 333.326901 -54.336008 
L 332.930245 -53.002276 
z
" style="stroke: #3c3c3c; stroke-width: 1.25"/>
    </defs>
    <g clip-path="url(#pe61a4fe392)">
     <use xlink:href="#m871b5d5e5a" x="0" y="360" style="fill: #c76e6e; stroke: #3c3c3c; stroke-width: 1.25"/>
    </g>
   </g>
   <g id="PolyCollection_5">
    <defs>
     <path id="m0766eeb215" d="M 407.220844 -52.2 
L 406.379156 -52.2 
L 406.068686 -53.563033 
L 405.585482 -54.926066 
L 404.870863 -56.2891 
L 403.866603 -57.652133 
L 402.525628 -59.015166 
L 400.824443 -60.378199 
L 398.774445 -61.741232 
L 396.428652 -63.104265 
L 393.880954 -64.467299 
L 391.256674 -65.830332 
L 388.695667 -67.193365 
L 386.331433 -68.556398 
L 384.271032 -69.919431 
L 382.580361 -71.282464 
L 381.27779 -72.645498 
L 380.336868 -74.008531 
L 379.696584 -75.371564 
L 379.276193 -76.734597 
L 378.991162 -78.09763 
L 378.767124 -79.460663 
L 378.5497 -80.823697 
L 378.30918 -82.18673 
L 378.040117 -83.549763 
L 377.756779 -84.912796 
L 377.485957 -86.275829 
L 377.258843 -87.638862 
L 377.103627 -89.001896 
L 377.04 -90.364929 
L 377.076261 -91.727962 
L 377.209041 -93.090995 
L 377.425185 -94.454028 
L 377.705015 -95.817061 
L 378.026124 -97.180095 
L 378.367018 -98.543128 
L 378.710125 -99.906161 
L 379.043934 -101.269194 
L 379.364102 -102.632227 
L 379.673453 -103.99526 
L 379.980854 -105.358294 
L 380.299027 -106.721327 
L 380.64154 -108.08436 
L 381.019391 -109.447393 
L 381.437785 -110.810426 
L 381.893868 -112.173459 
L 382.376211 -113.536493 
L 382.866717 -114.899526 
L 383.345063 -116.262559 
L 383.795006 -117.625592 
L 384.210922 -118.988625 
L 384.602365 -120.351658 
L 384.994646 -121.714692 
L 385.424539 -123.077725 
L 385.931975 -124.440758 
L 386.550107 -125.803791 
L 387.296862 -127.166824 
L 388.170489 -128.529857 
L 389.150079 -129.892891 
L 390.200265 -131.255924 
L 391.278112 -132.618957 
L 392.339965 -133.98199 
L 393.346706 -135.345023 
L 394.266866 -136.708056 
L 395.077891 -138.07109 
L 395.76621 -139.434123 
L 396.326715 -140.797156 
L 396.761977 -142.160189 
L 397.081361 -143.523222 
L 397.300168 -144.886255 
L 397.438938 -146.249289 
L 397.522991 -147.612322 
L 397.581997 -148.975355 
L 397.649054 -150.338388 
L 397.758605 -151.701421 
L 397.942782 -153.064454 
L 398.226509 -154.427488 
L 398.622533 -155.790521 
L 399.128108 -157.153554 
L 399.724838 -158.516587 
L 400.38224 -159.87962 
L 401.064166 -161.242653 
L 401.736185 -162.605687 
L 402.371632 -163.96872 
L 402.954716 -165.331753 
L 403.480239 -166.694786 
L 403.950731 -168.057819 
L 404.372538 -169.420852 
L 404.752327 -170.783886 
L 405.094965 -172.146919 
L 405.402921 -173.509952 
L 405.676792 -174.872985 
L 405.916308 -176.236018 
L 406.121309 -177.599051 
L 406.292386 -178.962085 
L 406.431163 -180.325118 
L 406.540284 -181.688151 
L 406.623217 -183.051184 
L 406.683965 -184.414217 
L 406.726732 -185.77725 
L 406.755592 -187.140284 
L 406.844408 -187.140284 
L 406.844408 -187.140284 
L 406.873268 -185.77725 
L 406.916035 -184.414217 
L 406.976783 -183.051184 
L 407.059716 -181.688151 
L 407.168837 -180.325118 
L 407.307614 -178.962085 
L 407.478691 -177.599051 
L 407.683692 -176.236018 
L 407.923208 -174.872985 
L 408.197079 -173.509952 
L 408.505035 -172.146919 
L 408.847673 -170.783886 
L 409.227462 -169.420852 
L 409.649269 -168.057819 
L 410.119761 -166.694786 
L 410.645284 -165.331753 
L 411.228368 -163.96872 
L 411.863815 -162.605687 
L 412.535834 -161.242653 
L 413.21776 -159.87962 
L 413.875162 -158.516587 
L 414.471892 -157.153554 
L 414.977467 -155.790521 
L 415.373491 -154.427488 
L 415.657218 -153.064454 
L 415.841395 -151.701421 
L 415.950946 -150.338388 
L 416.018003 -148.975355 
L 416.077009 -147.612322 
L 416.161062 -146.249289 
L 416.299832 -144.886255 
L 416.518639 -143.523222 
L 416.838023 -142.160189 
L 417.273285 -140.797156 
L 417.83379 -139.434123 
L 418.522109 -138.07109 
L 419.333134 -136.708056 
L 420.253294 -135.345023 
L 421.260035 -133.98199 
L 422.321888 -132.618957 
L 423.399735 -131.255924 
L 424.449921 -129.892891 
L 425.429511 -128.529857 
L 426.303138 -127.166824 
L 427.049893 -125.803791 
L 427.668025 -124.440758 
L 428.175461 -123.077725 
L 428.605354 -121.714692 
L 428.997635 -120.351658 
L 429.389078 -118.988625 
L 429.804994 -117.625592 
L 430.254937 -116.262559 
L 430.733283 -114.899526 
L 431.223789 -113.536493 
L 431.706132 -112.173459 
L 432.162215 -110.810426 
L 432.580609 -109.447393 
L 432.95846 -108.08436 
L 433.300973 -106.721327 
L 433.619146 -105.358294 
L 433.926547 -103.99526 
L 434.235898 -102.632227 
L 434.556066 -101.269194 
L 434.889875 -99.906161 
L 435.232982 -98.543128 
L 435.573876 -97.180095 
L 435.894985 -95.817061 
L 436.174815 -94.454028 
L 436.390959 -93.090995 
L 436.523739 -91.727962 
L 436.56 -90.364929 
L 436.496373 -89.001896 
L 436.341157 -87.638862 
L 436.114043 -86.275829 
L 435.843221 -84.912796 
L 435.559883 -83.549763 
L 435.29082 -82.18673 
L 435.0503 -80.823697 
L 434.832876 -79.460663 
L 434.608838 -78.09763 
L 434.323807 -76.734597 
L 433.903416 -75.371564 
L 433.263132 -74.008531 
L 432.32221 -72.645498 
L 431.019639 -71.282464 
L 429.328968 -69.919431 
L 427.268567 -68.556398 
L 424.904333 -67.193365 
L 422.343326 -65.830332 
L 419.719046 -64.467299 
L 417.171348 -63.104265 
L 414.825555 -61.741232 
L 412.775557 -60.378199 
L 411.074372 -59.015166 
L 409.733397 -57.652133 
L 408.729137 -56.2891 
L 408.014518 -54.926066 
L 407.531314 -53.563033 
L 407.220844 -52.2 
z
" style="stroke: #3c3c3c; stroke-width: 1.25"/>
    </defs>
    <g clip-path="url(#pe61a4fe392)">
     <use xlink:href="#m0766eeb215" x="0" y="360" style="fill: #9475ab; stroke: #3c3c3c; stroke-width: 1.25"/>
    </g>
   </g>
   <g id="PolyCollection_6">
    <defs>
     <path id="m5233a42bc9" d="M 481.604049 -53.101522 
L 480.795951 -53.101522 
L 480.470757 -54.482006 
L 479.952412 -55.86249 
L 479.174533 -57.242974 
L 478.075235 -58.623459 
L 476.611845 -60.003943 
L 474.776056 -61.384427 
L 472.604566 -62.764911 
L 470.180548 -64.145396 
L 467.623662 -65.52588 
L 465.070202 -66.906364 
L 462.648759 -68.286848 
L 460.458584 -69.667332 
L 458.556918 -71.047817 
L 456.95812 -72.428301 
L 455.64316 -73.808785 
L 454.574717 -75.189269 
L 453.712059 -76.569754 
L 453.021127 -77.950238 
L 452.477988 -79.330722 
L 452.066623 -80.711206 
L 451.77389 -82.09169 
L 451.584837 -83.472175 
L 451.480649 -84.852659 
L 451.44 -86.233143 
L 451.443072 -87.613627 
L 451.476427 -88.994112 
L 451.536602 -90.374596 
L 451.630683 -91.75508 
L 451.773156 -93.135564 
L 451.97966 -94.516049 
L 452.259543 -95.896533 
L 452.6098 -97.277017 
L 453.012841 -98.657501 
L 453.439458 -100.037985 
L 453.856617 -101.41847 
L 454.237814 -102.798954 
L 454.572472 -104.179438 
L 454.870811 -105.559922 
L 455.162094 -106.940407 
L 455.486555 -108.320891 
L 455.883849 -109.701375 
L 456.382199 -111.081859 
L 456.992072 -112.462344 
L 457.706172 -113.842828 
L 458.504723 -115.223312 
L 459.362894 -116.603796 
L 460.256733 -117.98428 
L 461.165469 -119.364765 
L 462.070504 -120.745249 
L 462.953427 -122.125733 
L 463.795626 -123.506217 
L 464.580579 -124.886702 
L 465.297671 -126.267186 
L 465.945075 -127.64767 
L 466.529661 -129.028154 
L 467.063766 -130.408638 
L 467.560621 -131.789123 
L 468.030961 -133.169607 
L 468.482436 -134.550091 
L 468.921566 -135.930575 
L 469.356408 -137.31106 
L 469.797782 -138.691544 
L 470.25794 -140.072028 
L 470.747304 -141.452512 
L 471.271122 -142.832997 
L 471.827983 -144.213481 
L 472.411019 -145.593965 
L 473.011037 -146.974449 
L 473.619833 -148.354933 
L 474.232011 -149.735418 
L 474.844662 -151.115902 
L 475.455441 -152.496386 
L 476.060274 -153.87687 
L 476.651835 -155.257355 
L 477.219318 -156.637839 
L 477.749456 -158.018323 
L 478.228403 -159.398807 
L 478.644018 -160.779292 
L 478.98814 -162.159776 
L 479.25843 -163.54026 
L 479.45934 -164.920744 
L 479.601918 -166.301228 
L 479.702312 -167.681713 
L 479.77921 -169.062197 
L 479.850731 -170.442681 
L 479.931434 -171.823165 
L 480.030188 -173.20365 
L 480.14936 -174.584134 
L 480.285464 -175.964618 
L 480.430953 -177.345102 
L 480.576551 -178.725586 
L 480.713447 -180.106071 
L 480.834865 -181.486555 
L 480.936794 -182.867039 
L 481.017981 -184.247523 
L 481.079419 -185.628008 
L 481.123608 -187.008492 
L 481.153801 -188.388976 
L 481.17338 -189.76946 
L 481.22662 -189.76946 
L 481.22662 -189.76946 
L 481.246199 -188.388976 
L 481.276392 -187.008492 
L 481.320581 -185.628008 
L 481.382019 -184.247523 
L 481.463206 -182.867039 
L 481.565135 -181.486555 
L 481.686553 -180.106071 
L 481.823449 -178.725586 
L 481.969047 -177.345102 
L 482.114536 -175.964618 
L 482.25064 -174.584134 
L 482.369812 -173.20365 
L 482.468566 -171.823165 
L 482.549269 -170.442681 
L 482.62079 -169.062197 
L 482.697688 -167.681713 
L 482.798082 -166.301228 
L 482.94066 -164.920744 
L 483.14157 -163.54026 
L 483.41186 -162.159776 
L 483.755982 -160.779292 
L 484.171597 -159.398807 
L 484.650544 -158.018323 
L 485.180682 -156.637839 
L 485.748165 -155.257355 
L 486.339726 -153.87687 
L 486.944559 -152.496386 
L 487.555338 -151.115902 
L 488.167989 -149.735418 
L 488.780167 -148.354933 
L 489.388963 -146.974449 
L 489.988981 -145.593965 
L 490.572017 -144.213481 
L 491.128878 -142.832997 
L 491.652696 -141.452512 
L 492.14206 -140.072028 
L 492.602218 -138.691544 
L 493.043592 -137.31106 
L 493.478434 -135.930575 
L 493.917564 -134.550091 
L 494.369039 -133.169607 
L 494.839379 -131.789123 
L 495.336234 -130.408638 
L 495.870339 -129.028154 
L 496.454925 -127.64767 
L 497.102329 -126.267186 
L 497.819421 -124.886702 
L 498.604374 -123.506217 
L 499.446573 -122.125733 
L 500.329496 -120.745249 
L 501.234531 -119.364765 
L 502.143267 -117.98428 
L 503.037106 -116.603796 
L 503.895277 -115.223312 
L 504.693828 -113.842828 
L 505.407928 -112.462344 
L 506.017801 -111.081859 
L 506.516151 -109.701375 
L 506.913445 -108.320891 
L 507.237906 -106.940407 
L 507.529189 -105.559922 
L 507.827528 -104.179438 
L 508.162186 -102.798954 
L 508.543383 -101.41847 
L 508.960542 -100.037985 
L 509.387159 -98.657501 
L 509.7902 -97.277017 
L 510.140457 -95.896533 
L 510.42034 -94.516049 
L 510.626844 -93.135564 
L 510.769317 -91.75508 
L 510.863398 -90.374596 
L 510.923573 -88.994112 
L 510.956928 -87.613627 
L 510.96 -86.233143 
L 510.919351 -84.852659 
L 510.815163 -83.472175 
L 510.62611 -82.09169 
L 510.333377 -80.711206 
L 509.922012 -79.330722 
L 509.378873 -77.950238 
L 508.687941 -76.569754 
L 507.825283 -75.189269 
L 506.75684 -73.808785 
L 505.44188 -72.428301 
L 503.843082 -71.047817 
L 501.941416 -69.667332 
L 499.751241 -68.286848 
L 497.329798 -66.906364 
L 494.776338 -65.52588 
L 492.219452 -64.145396 
L 489.795434 -62.764911 
L 487.623944 -61.384427 
L 485.788155 -60.003943 
L 484.324765 -58.623459 
L 483.225467 -57.242974 
L 482.447588 -55.86249 
L 481.929243 -54.482006 
L 481.604049 -53.101522 
z
" style="stroke: #3c3c3c; stroke-width: 1.25"/>
    </defs>
    <g clip-path="url(#pe61a4fe392)">
     <use xlink:href="#m5233a42bc9" x="0" y="360" style="fill: #826246; stroke: #3c3c3c; stroke-width: 1.25"/>
    </g>
   </g>
   <g id="matplotlib.axis_1">
    <g id="xtick_1">
     <g id="line2d_1">
      <defs>
       <path id="m9975761277" d="M 0 0 
L 0 3.5 
" style="stroke: #000000; stroke-width: 0.8"/>
      </defs>
      <g>
       <use xlink:href="#m9975761277" x="109.2" y="320.4" style="stroke: #000000; stroke-width: 0.8"/>
      </g>
     </g>
     <g id="text_1">
      <!-- 0 -->
      <g transform="translate(106.01875 334.998438) scale(0.1 -0.1)">
       <defs>
        <path id="DejaVuSans-30" d="M 2034 4250 
Q 1547 4250 1301 3770 
Q 1056 3291 1056 2328 
Q 1056 1369 1301 889 
Q 1547 409 2034 409 
Q 2525 409 2770 889 
Q 3016 1369 3016 2328 
Q 3016 3291 2770 3770 
Q 2525 4250 2034 4250 
z
M 2034 4750 
Q 2819 4750 3233 4129 
Q 3647 3509 3647 2328 
Q 3647 1150 3233 529 
Q 2819 -91 2034 -91 
Q 1250 -91 836 529 
Q 422 1150 422 2328 
Q 422 3509 836 4129 
Q 1250 4750 2034 4750 
z
" transform="scale(0.015625)"/>
       </defs>
       <use xlink:href="#DejaVuSans-30"/>
      </g>
     </g>
    </g>
    <g id="xtick_2">
     <g id="line2d_2">
      <g>
       <use xlink:href="#m9975761277" x="183.6" y="320.4" style="stroke: #000000; stroke-width: 0.8"/>
      </g>
     </g>
     <g id="text_2">
      <!-- 1 -->
      <g transform="translate(180.41875 334.998438) scale(0.1 -0.1)">
       <defs>
        <path id="DejaVuSans-31" d="M 794 531 
L 1825 531 
L 1825 4091 
L 703 3866 
L 703 4441 
L 1819 4666 
L 2450 4666 
L 2450 531 
L 3481 531 
L 3481 0 
L 794 0 
L 794 531 
z
" transform="scale(0.015625)"/>
       </defs>
       <use xlink:href="#DejaVuSans-31"/>
      </g>
     </g>
    </g>
    <g id="xtick_3">
     <g id="line2d_3">
      <g>
       <use xlink:href="#m9975761277" x="258" y="320.4" style="stroke: #000000; stroke-width: 0.8"/>
      </g>
     </g>
     <g id="text_3">
      <!-- 2 -->
      <g transform="translate(254.81875 334.998438) scale(0.1 -0.1)">
       <defs>
        <path id="DejaVuSans-32" d="M 1228 531 
L 3431 531 
L 3431 0 
L 469 0 
L 469 531 
Q 828 903 1448 1529 
Q 2069 2156 2228 2338 
Q 2531 2678 2651 2914 
Q 2772 3150 2772 3378 
Q 2772 3750 2511 3984 
Q 2250 4219 1831 4219 
Q 1534 4219 1204 4116 
Q 875 4013 500 3803 
L 500 4441 
Q 881 4594 1212 4672 
Q 1544 4750 1819 4750 
Q 2544 4750 2975 4387 
Q 3406 4025 3406 3419 
Q 3406 3131 3298 2873 
Q 3191 2616 2906 2266 
Q 2828 2175 2409 1742 
Q 1991 1309 1228 531 
z
" transform="scale(0.015625)"/>
       </defs>
       <use xlink:href="#DejaVuSans-32"/>
      </g>
     </g>
    </g>
    <g id="xtick_4">
     <g id="line2d_4">
      <g>
       <use xlink:href="#m9975761277" x="332.4" y="320.4" style="stroke: #000000; stroke-width: 0.8"/>
      </g>
     </g>
     <g id="text_4">
      <!-- 3 -->
      <g transform="translate(329.21875 334.998438) scale(0.1 -0.1)">
       <defs>
        <path id="DejaVuSans-33" d="M 2597 2516 
Q 3050 2419 3304 2112 
Q 3559 1806 3559 1356 
Q 3559 666 3084 287 
Q 2609 -91 1734 -91 
Q 1441 -91 1130 -33 
Q 819 25 488 141 
L 488 750 
Q 750 597 1062 519 
Q 1375 441 1716 441 
Q 2309 441 2620 675 
Q 2931 909 2931 1356 
Q 2931 1769 2642 2001 
Q 2353 2234 1838 2234 
L 1294 2234 
L 1294 2753 
L 1863 2753 
Q 2328 2753 2575 2939 
Q 2822 3125 2822 3475 
Q 2822 3834 2567 4026 
Q 2313 4219 1838 4219 
Q 1578 4219 1281 4162 
Q 984 4106 628 3988 
L 628 4550 
Q 988 4650 1302 4700 
Q 1616 4750 1894 4750 
Q 2613 4750 3031 4423 
Q 3450 4097 3450 3541 
Q 3450 3153 3228 2886 
Q 3006 2619 2597 2516 
z
" transform="scale(0.015625)"/>
       </defs>
       <use xlink:href="#DejaVuSans-33"/>
      </g>
     </g>
    </g>
    <g id="xtick_5">
     <g id="line2d_5">
      <g>
       <use xlink:href="#m9975761277" x="406.8" y="320.4" style="stroke: #000000; stroke-width: 0.8"/>
      </g>
     </g>
     <g id="text_5">
      <!-- 4 -->
      <g transform="translate(403.61875 334.998438) scale(0.1 -0.1)">
       <defs>
        <path id="DejaVuSans-34" d="M 2419 4116 
L 825 1625 
L 2419 1625 
L 2419 4116 
z
M 2253 4666 
L 3047 4666 
L 3047 1625 
L 3713 1625 
L 3713 1100 
L 3047 1100 
L 3047 0 
L 2419 0 
L 2419 1100 
L 313 1100 
L 313 1709 
L 2253 4666 
z
" transform="scale(0.015625)"/>
       </defs>
       <use xlink:href="#DejaVuSans-34"/>
      </g>
     </g>
    </g>
    <g id="xtick_6">
     <g id="line2d_6">
      <g>
       <use xlink:href="#m9975761277" x="481.2" y="320.4" style="stroke: #000000; stroke-width: 0.8"/>
      </g>
     </g>
     <g id="text_6">
      <!-- 5 -->
      <g transform="translate(478.01875 334.998438) scale(0.1 -0.1)">
       <defs>
        <path id="DejaVuSans-35" d="M 691 4666 
L 3169 4666 
L 3169 4134 
L 1269 4134 
L 1269 2991 
Q 1406 3038 1543 3061 
Q 1681 3084 1819 3084 
Q 2600 3084 3056 2656 
Q 3513 2228 3513 1497 
Q 3513 744 3044 326 
Q 2575 -91 1722 -91 
Q 1428 -91 1123 -41 
Q 819 9 494 109 
L 494 744 
Q 775 591 1075 516 
Q 1375 441 1709 441 
Q 2250 441 2565 725 
Q 2881 1009 2881 1497 
Q 2881 1984 2565 2268 
Q 2250 2553 1709 2553 
Q 1456 2553 1204 2497 
Q 953 2441 691 2322 
L 691 4666 
z
" transform="scale(0.015625)"/>
       </defs>
       <use xlink:href="#DejaVuSans-35"/>
      </g>
     </g>
    </g>
    <g id="text_7">
     <!-- Cluster -->
     <g transform="translate(277.453906 348.676562) scale(0.1 -0.1)">
      <defs>
       <path id="DejaVuSans-43" d="M 4122 4306 
L 4122 3641 
Q 3803 3938 3442 4084 
Q 3081 4231 2675 4231 
Q 1875 4231 1450 3742 
Q 1025 3253 1025 2328 
Q 1025 1406 1450 917 
Q 1875 428 2675 428 
Q 3081 428 3442 575 
Q 3803 722 4122 1019 
L 4122 359 
Q 3791 134 3420 21 
Q 3050 -91 2638 -91 
Q 1578 -91 968 557 
Q 359 1206 359 2328 
Q 359 3453 968 4101 
Q 1578 4750 2638 4750 
Q 3056 4750 3426 4639 
Q 3797 4528 4122 4306 
z
" transform="scale(0.015625)"/>
       <path id="DejaVuSans-6c" d="M 603 4863 
L 1178 4863 
L 1178 0 
L 603 0 
L 603 4863 
z
" transform="scale(0.015625)"/>
       <path id="DejaVuSans-75" d="M 544 1381 
L 544 3500 
L 1119 3500 
L 1119 1403 
Q 1119 906 1312 657 
Q 1506 409 1894 409 
Q 2359 409 2629 706 
Q 2900 1003 2900 1516 
L 2900 3500 
L 3475 3500 
L 3475 0 
L 2900 0 
L 2900 538 
Q 2691 219 2414 64 
Q 2138 -91 1772 -91 
Q 1169 -91 856 284 
Q 544 659 544 1381 
z
M 1991 3584 
L 1991 3584 
z
" transform="scale(0.015625)"/>
       <path id="DejaVuSans-73" d="M 2834 3397 
L 2834 2853 
Q 2591 2978 2328 3040 
Q 2066 3103 1784 3103 
Q 1356 3103 1142 2972 
Q 928 2841 928 2578 
Q 928 2378 1081 2264 
Q 1234 2150 1697 2047 
L 1894 2003 
Q 2506 1872 2764 1633 
Q 3022 1394 3022 966 
Q 3022 478 2636 193 
Q 2250 -91 1575 -91 
Q 1294 -91 989 -36 
Q 684 19 347 128 
L 347 722 
Q 666 556 975 473 
Q 1284 391 1588 391 
Q 1994 391 2212 530 
Q 2431 669 2431 922 
Q 2431 1156 2273 1281 
Q 2116 1406 1581 1522 
L 1381 1569 
Q 847 1681 609 1914 
Q 372 2147 372 2553 
Q 372 3047 722 3315 
Q 1072 3584 1716 3584 
Q 2034 3584 2315 3537 
Q 2597 3491 2834 3397 
z
" transform="scale(0.015625)"/>
       <path id="DejaVuSans-74" d="M 1172 4494 
L 1172 3500 
L 2356 3500 
L 2356 3053 
L 1172 3053 
L 1172 1153 
Q 1172 725 1289 603 
Q 1406 481 1766 481 
L 2356 481 
L 2356 0 
L 1766 0 
Q 1100 0 847 248 
Q 594 497 594 1153 
L 594 3053 
L 172 3053 
L 172 3500 
L 594 3500 
L 594 4494 
L 1172 4494 
z
" transform="scale(0.015625)"/>
       <path id="DejaVuSans-65" d="M 3597 1894 
L 3597 1613 
L 953 1613 
Q 991 1019 1311 708 
Q 1631 397 2203 397 
Q 2534 397 2845 478 
Q 3156 559 3463 722 
L 3463 178 
Q 3153 47 2828 -22 
Q 2503 -91 2169 -91 
Q 1331 -91 842 396 
Q 353 884 353 1716 
Q 353 2575 817 3079 
Q 1281 3584 2069 3584 
Q 2775 3584 3186 3129 
Q 3597 2675 3597 1894 
z
M 3022 2063 
Q 3016 2534 2758 2815 
Q 2500 3097 2075 3097 
Q 1594 3097 1305 2825 
Q 1016 2553 972 2059 
L 3022 2063 
z
" transform="scale(0.015625)"/>
       <path id="DejaVuSans-72" d="M 2631 2963 
Q 2534 3019 2420 3045 
Q 2306 3072 2169 3072 
Q 1681 3072 1420 2755 
Q 1159 2438 1159 1844 
L 1159 0 
L 581 0 
L 581 3500 
L 1159 3500 
L 1159 2956 
Q 1341 3275 1631 3429 
Q 1922 3584 2338 3584 
Q 2397 3584 2469 3576 
Q 2541 3569 2628 3553 
L 2631 2963 
z
" transform="scale(0.015625)"/>
      </defs>
      <use xlink:href="#DejaVuSans-43"/>
      <use xlink:href="#DejaVuSans-6c" x="69.824219"/>
      <use xlink:href="#DejaVuSans-75" x="97.607422"/>
      <use xlink:href="#DejaVuSans-73" x="160.986328"/>
      <use xlink:href="#DejaVuSans-74" x="213.085938"/>
      <use xlink:href="#DejaVuSans-65" x="252.294922"/>
      <use xlink:href="#DejaVuSans-72" x="313.818359"/>
     </g>
    </g>
   </g>
   <g id="matplotlib.axis_2">
    <g id="ytick_1">
     <g id="line2d_7">
      <defs>
       <path id="m51b051dbfa" d="M 0 0 
L -3.5 0 
" style="stroke: #000000; stroke-width: 0.8"/>
      </defs>
      <g>
       <use xlink:href="#m51b051dbfa" x="72" y="297.195491" style="stroke: #000000; stroke-width: 0.8"/>
      </g>
     </g>
     <g id="text_8">
      <!-- 0.0 -->
      <g transform="translate(49.096875 300.99471) scale(0.1 -0.1)">
       <defs>
        <path id="DejaVuSans-2e" d="M 684 794 
L 1344 794 
L 1344 0 
L 684 0 
L 684 794 
z
" transform="scale(0.015625)"/>
       </defs>
       <use xlink:href="#DejaVuSans-30"/>
       <use xlink:href="#DejaVuSans-2e" x="63.623047"/>
       <use xlink:href="#DejaVuSans-30" x="95.410156"/>
      </g>
     </g>
    </g>
    <g id="ytick_2">
     <g id="line2d_8">
      <g>
       <use xlink:href="#m51b051dbfa" x="72" y="251.76904" style="stroke: #000000; stroke-width: 0.8"/>
      </g>
     </g>
     <g id="text_9">
      <!-- 0.5 -->
      <g transform="translate(49.096875 255.568259) scale(0.1 -0.1)">
       <use xlink:href="#DejaVuSans-30"/>
       <use xlink:href="#DejaVuSans-2e" x="63.623047"/>
       <use xlink:href="#DejaVuSans-35" x="95.410156"/>
      </g>
     </g>
    </g>
    <g id="ytick_3">
     <g id="line2d_9">
      <g>
       <use xlink:href="#m51b051dbfa" x="72" y="206.342589" style="stroke: #000000; stroke-width: 0.8"/>
      </g>
     </g>
     <g id="text_10">
      <!-- 1.0 -->
      <g transform="translate(49.096875 210.141808) scale(0.1 -0.1)">
       <use xlink:href="#DejaVuSans-31"/>
       <use xlink:href="#DejaVuSans-2e" x="63.623047"/>
       <use xlink:href="#DejaVuSans-30" x="95.410156"/>
      </g>
     </g>
    </g>
    <g id="ytick_4">
     <g id="line2d_10">
      <g>
       <use xlink:href="#m51b051dbfa" x="72" y="160.916138" style="stroke: #000000; stroke-width: 0.8"/>
      </g>
     </g>
     <g id="text_11">
      <!-- 1.5 -->
      <g transform="translate(49.096875 164.715357) scale(0.1 -0.1)">
       <use xlink:href="#DejaVuSans-31"/>
       <use xlink:href="#DejaVuSans-2e" x="63.623047"/>
       <use xlink:href="#DejaVuSans-35" x="95.410156"/>
      </g>
     </g>
    </g>
    <g id="ytick_5">
     <g id="line2d_11">
      <g>
       <use xlink:href="#m51b051dbfa" x="72" y="115.489687" style="stroke: #000000; stroke-width: 0.8"/>
      </g>
     </g>
     <g id="text_12">
      <!-- 2.0 -->
      <g transform="translate(49.096875 119.288906) scale(0.1 -0.1)">
       <use xlink:href="#DejaVuSans-32"/>
       <use xlink:href="#DejaVuSans-2e" x="63.623047"/>
       <use xlink:href="#DejaVuSans-30" x="95.410156"/>
      </g>
     </g>
    </g>
    <g id="ytick_6">
     <g id="line2d_12">
      <g>
       <use xlink:href="#m51b051dbfa" x="72" y="70.063237" style="stroke: #000000; stroke-width: 0.8"/>
      </g>
     </g>
     <g id="text_13">
      <!-- 2.5 -->
      <g transform="translate(49.096875 73.862455) scale(0.1 -0.1)">
       <use xlink:href="#DejaVuSans-32"/>
       <use xlink:href="#DejaVuSans-2e" x="63.623047"/>
       <use xlink:href="#DejaVuSans-35" x="95.410156"/>
      </g>
     </g>
    </g>
    <g id="text_14">
     <!-- Sum Assured -->
     <g transform="translate(43.017187 214.594531) rotate(-90) scale(0.1 -0.1)">
      <defs>
       <path id="DejaVuSans-53" d="M 3425 4513 
L 3425 3897 
Q 3066 4069 2747 4153 
Q 2428 4238 2131 4238 
Q 1616 4238 1336 4038 
Q 1056 3838 1056 3469 
Q 1056 3159 1242 3001 
Q 1428 2844 1947 2747 
L 2328 2669 
Q 3034 2534 3370 2195 
Q 3706 1856 3706 1288 
Q 3706 609 3251 259 
Q 2797 -91 1919 -91 
Q 1588 -91 1214 -16 
Q 841 59 441 206 
L 441 856 
Q 825 641 1194 531 
Q 1563 422 1919 422 
Q 2459 422 2753 634 
Q 3047 847 3047 1241 
Q 3047 1584 2836 1778 
Q 2625 1972 2144 2069 
L 1759 2144 
Q 1053 2284 737 2584 
Q 422 2884 422 3419 
Q 422 4038 858 4394 
Q 1294 4750 2059 4750 
Q 2388 4750 2728 4690 
Q 3069 4631 3425 4513 
z
" transform="scale(0.015625)"/>
       <path id="DejaVuSans-6d" d="M 3328 2828 
Q 3544 3216 3844 3400 
Q 4144 3584 4550 3584 
Q 5097 3584 5394 3201 
Q 5691 2819 5691 2113 
L 5691 0 
L 5113 0 
L 5113 2094 
Q 5113 2597 4934 2840 
Q 4756 3084 4391 3084 
Q 3944 3084 3684 2787 
Q 3425 2491 3425 1978 
L 3425 0 
L 2847 0 
L 2847 2094 
Q 2847 2600 2669 2842 
Q 2491 3084 2119 3084 
Q 1678 3084 1418 2786 
Q 1159 2488 1159 1978 
L 1159 0 
L 581 0 
L 581 3500 
L 1159 3500 
L 1159 2956 
Q 1356 3278 1631 3431 
Q 1906 3584 2284 3584 
Q 2666 3584 2933 3390 
Q 3200 3197 3328 2828 
z
" transform="scale(0.015625)"/>
       <path id="DejaVuSans-20" transform="scale(0.015625)"/>
       <path id="DejaVuSans-41" d="M 2188 4044 
L 1331 1722 
L 3047 1722 
L 2188 4044 
z
M 1831 4666 
L 2547 4666 
L 4325 0 
L 3669 0 
L 3244 1197 
L 1141 1197 
L 716 0 
L 50 0 
L 1831 4666 
z
" transform="scale(0.015625)"/>
       <path id="DejaVuSans-64" d="M 2906 2969 
L 2906 4863 
L 3481 4863 
L 3481 0 
L 2906 0 
L 2906 525 
Q 2725 213 2448 61 
Q 2172 -91 1784 -91 
Q 1150 -91 751 415 
Q 353 922 353 1747 
Q 353 2572 751 3078 
Q 1150 3584 1784 3584 
Q 2172 3584 2448 3432 
Q 2725 3281 2906 2969 
z
M 947 1747 
Q 947 1113 1208 752 
Q 1469 391 1925 391 
Q 2381 391 2643 752 
Q 2906 1113 2906 1747 
Q 2906 2381 2643 2742 
Q 2381 3103 1925 3103 
Q 1469 3103 1208 2742 
Q 947 2381 947 1747 
z
" transform="scale(0.015625)"/>
      </defs>
      <use xlink:href="#DejaVuSans-53"/>
      <use xlink:href="#DejaVuSans-75" x="63.476562"/>
      <use xlink:href="#DejaVuSans-6d" x="126.855469"/>
      <use xlink:href="#DejaVuSans-20" x="224.267578"/>
      <use xlink:href="#DejaVuSans-41" x="256.054688"/>
      <use xlink:href="#DejaVuSans-73" x="324.462891"/>
      <use xlink:href="#DejaVuSans-73" x="376.5625"/>
      <use xlink:href="#DejaVuSans-75" x="428.662109"/>
      <use xlink:href="#DejaVuSans-72" x="492.041016"/>
      <use xlink:href="#DejaVuSans-65" x="530.904297"/>
      <use xlink:href="#DejaVuSans-64" x="592.427734"/>
     </g>
    </g>
    <g id="text_15">
     <!-- 1e6 -->
     <g transform="translate(72 40.2) scale(0.1 -0.1)">
      <defs>
       <path id="DejaVuSans-36" d="M 2113 2584 
Q 1688 2584 1439 2293 
Q 1191 2003 1191 1497 
Q 1191 994 1439 701 
Q 1688 409 2113 409 
Q 2538 409 2786 701 
Q 3034 994 3034 1497 
Q 3034 2003 2786 2293 
Q 2538 2584 2113 2584 
z
M 3366 4563 
L 3366 3988 
Q 3128 4100 2886 4159 
Q 2644 4219 2406 4219 
Q 1781 4219 1451 3797 
Q 1122 3375 1075 2522 
Q 1259 2794 1537 2939 
Q 1816 3084 2150 3084 
Q 2853 3084 3261 2657 
Q 3669 2231 3669 1497 
Q 3669 778 3244 343 
Q 2819 -91 2113 -91 
Q 1303 -91 875 529 
Q 447 1150 447 2328 
Q 447 3434 972 4092 
Q 1497 4750 2381 4750 
Q 2619 4750 2861 4703 
Q 3103 4656 3366 4563 
z
" transform="scale(0.015625)"/>
      </defs>
      <use xlink:href="#DejaVuSans-31"/>
      <use xlink:href="#DejaVuSans-65" x="63.623047"/>
      <use xlink:href="#DejaVuSans-36" x="125.146484"/>
     </g>
    </g>
   </g>
   <g id="line2d_13">
    <path d="M 109.2 260.841473 
L 109.2 73.452651 
" clip-path="url(#pe61a4fe392)" style="fill: none; stroke: #3c3c3c; stroke-width: 1.875; stroke-linecap: square"/>
   </g>
   <g id="line2d_14">
    <path d="M 109.2 208.152228 
L 109.2 150.619768 
" clip-path="url(#pe61a4fe392)" style="fill: none; stroke: #3c3c3c; stroke-width: 5.625; stroke-linecap: square"/>
   </g>
   <g id="line2d_15">
    <path d="M 109.2 182.426821 
" clip-path="url(#pe61a4fe392)" style="fill: none; stroke: #3c3c3c; stroke-width: 1.5; stroke-linecap: square"/>
    <defs>
     <path id="mc5da448292" d="M 2.34375 0 
L -2.34375 -0 
" style="stroke: #ffffff; stroke-width: 1.125"/>
    </defs>
    <g clip-path="url(#pe61a4fe392)">
     <use xlink:href="#mc5da448292" x="109.2" y="182.426821" style="fill: #ffffff; stroke: #ffffff; stroke-width: 1.125"/>
    </g>
   </g>
   <g id="line2d_16">
    <path d="M 183.6 260.797219 
L 183.6 78.157922 
" clip-path="url(#pe61a4fe392)" style="fill: none; stroke: #3c3c3c; stroke-width: 1.875; stroke-linecap: square"/>
   </g>
   <g id="line2d_17">
    <path d="M 183.6 207.683974 
L 183.6 151.418082 
" clip-path="url(#pe61a4fe392)" style="fill: none; stroke: #3c3c3c; stroke-width: 5.625; stroke-linecap: square"/>
   </g>
   <g id="line2d_18">
    <path d="M 183.6 180.982515 
" clip-path="url(#pe61a4fe392)" style="fill: none; stroke: #3c3c3c; stroke-width: 1.5; stroke-linecap: square"/>
    <g clip-path="url(#pe61a4fe392)">
     <use xlink:href="#mc5da448292" x="183.6" y="180.982515" style="fill: #ffffff; stroke: #ffffff; stroke-width: 1.125"/>
    </g>
   </g>
   <g id="line2d_19">
    <path d="M 258 295.626552 
L 258 184.924007 
" clip-path="url(#pe61a4fe392)" style="fill: none; stroke: #3c3c3c; stroke-width: 1.875; stroke-linecap: square"/>
   </g>
   <g id="line2d_20">
    <path d="M 258 279.058183 
L 258 240.966232 
" clip-path="url(#pe61a4fe392)" style="fill: none; stroke: #3c3c3c; stroke-width: 5.625; stroke-linecap: square"/>
   </g>
   <g id="line2d_21">
    <path d="M 258 261.138786 
" clip-path="url(#pe61a4fe392)" style="fill: none; stroke: #3c3c3c; stroke-width: 1.5; stroke-linecap: square"/>
    <g clip-path="url(#pe61a4fe392)">
     <use xlink:href="#mc5da448292" x="258" y="261.138786" style="fill: #ffffff; stroke: #ffffff; stroke-width: 1.125"/>
    </g>
   </g>
   <g id="line2d_22">
    <path d="M 332.4 295.791148 
L 332.4 190.568846 
" clip-path="url(#pe61a4fe392)" style="fill: none; stroke: #3c3c3c; stroke-width: 1.875; stroke-linecap: square"/>
   </g>
   <g id="line2d_23">
    <path d="M 332.4 278.878758 
L 332.4 242.056119 
" clip-path="url(#pe61a4fe392)" style="fill: none; stroke: #3c3c3c; stroke-width: 5.625; stroke-linecap: square"/>
   </g>
   <g id="line2d_24">
    <path d="M 332.4 261.565391 
" clip-path="url(#pe61a4fe392)" style="fill: none; stroke: #3c3c3c; stroke-width: 1.5; stroke-linecap: square"/>
    <g clip-path="url(#pe61a4fe392)">
     <use xlink:href="#mc5da448292" x="332.4" y="261.565391" style="fill: #ffffff; stroke: #ffffff; stroke-width: 1.125"/>
    </g>
   </g>
   <g id="line2d_25">
    <path d="M 406.8 295.978692 
L 406.8 184.681025 
" clip-path="url(#pe61a4fe392)" style="fill: none; stroke: #3c3c3c; stroke-width: 1.875; stroke-linecap: square"/>
   </g>
   <g id="line2d_26">
    <path d="M 406.8 276.193873 
L 406.8 236.947799 
" clip-path="url(#pe61a4fe392)" style="fill: none; stroke: #3c3c3c; stroke-width: 5.625; stroke-linecap: square"/>
   </g>
   <g id="line2d_27">
    <path d="M 406.8 258.918983 
" clip-path="url(#pe61a4fe392)" style="fill: none; stroke: #3c3c3c; stroke-width: 1.5; stroke-linecap: square"/>
    <g clip-path="url(#pe61a4fe392)">
     <use xlink:href="#mc5da448292" x="406.8" y="258.918983" style="fill: #ffffff; stroke: #ffffff; stroke-width: 1.125"/>
    </g>
   </g>
   <g id="line2d_28">
    <path d="M 481.2 295.836677 
L 481.2 188.131119 
" clip-path="url(#pe61a4fe392)" style="fill: none; stroke: #3c3c3c; stroke-width: 1.875; stroke-linecap: square"/>
   </g>
   <g id="line2d_29">
    <path d="M 481.2 277.139581 
L 481.2 241.443831 
" clip-path="url(#pe61a4fe392)" style="fill: none; stroke: #3c3c3c; stroke-width: 5.625; stroke-linecap: square"/>
   </g>
   <g id="line2d_30">
    <path d="M 481.2 261.068183 
" clip-path="url(#pe61a4fe392)" style="fill: none; stroke: #3c3c3c; stroke-width: 1.5; stroke-linecap: square"/>
    <g clip-path="url(#pe61a4fe392)">
     <use xlink:href="#mc5da448292" x="481.2" y="261.068183" style="fill: #ffffff; stroke: #ffffff; stroke-width: 1.125"/>
    </g>
   </g>
   <g id="patch_3">
    <path d="M 72 320.4 
L 72 43.2 
" style="fill: none; stroke: #000000; stroke-width: 0.8; stroke-linejoin: miter; stroke-linecap: square"/>
   </g>
   <g id="patch_4">
    <path d="M 518.4 320.4 
L 518.4 43.2 
" style="fill: none; stroke: #000000; stroke-width: 0.8; stroke-linejoin: miter; stroke-linecap: square"/>
   </g>
   <g id="patch_5">
    <path d="M 72 320.4 
L 518.4 320.4 
" style="fill: none; stroke: #000000; stroke-width: 0.8; stroke-linejoin: miter; stroke-linecap: square"/>
   </g>
   <g id="patch_6">
    <path d="M 72 43.2 
L 518.4 43.2 
" style="fill: none; stroke: #000000; stroke-width: 0.8; stroke-linejoin: miter; stroke-linecap: square"/>
   </g>
   <g id="text_16">
    <!-- Claim Amount Distribution by Cluster -->
    <g transform="translate(183.2925 37.2) scale(0.12 -0.12)">
     <defs>
      <path id="DejaVuSans-61" d="M 2194 1759 
Q 1497 1759 1228 1600 
Q 959 1441 959 1056 
Q 959 750 1161 570 
Q 1363 391 1709 391 
Q 2188 391 2477 730 
Q 2766 1069 2766 1631 
L 2766 1759 
L 2194 1759 
z
M 3341 1997 
L 3341 0 
L 2766 0 
L 2766 531 
Q 2569 213 2275 61 
Q 1981 -91 1556 -91 
Q 1019 -91 701 211 
Q 384 513 384 1019 
Q 384 1609 779 1909 
Q 1175 2209 1959 2209 
L 2766 2209 
L 2766 2266 
Q 2766 2663 2505 2880 
Q 2244 3097 1772 3097 
Q 1472 3097 1187 3025 
Q 903 2953 641 2809 
L 641 3341 
Q 956 3463 1253 3523 
Q 1550 3584 1831 3584 
Q 2591 3584 2966 3190 
Q 3341 2797 3341 1997 
z
" transform="scale(0.015625)"/>
      <path id="DejaVuSans-69" d="M 603 3500 
L 1178 3500 
L 1178 0 
L 603 0 
L 603 3500 
z
M 603 4863 
L 1178 4863 
L 1178 4134 
L 603 4134 
L 603 4863 
z
" transform="scale(0.015625)"/>
      <path id="DejaVuSans-6f" d="M 1959 3097 
Q 1497 3097 1228 2736 
Q 959 2375 959 1747 
Q 959 1119 1226 758 
Q 1494 397 1959 397 
Q 2419 397 2687 759 
Q 2956 1122 2956 1747 
Q 2956 2369 2687 2733 
Q 2419 3097 1959 3097 
z
M 1959 3584 
Q 2709 3584 3137 3096 
Q 3566 2609 3566 1747 
Q 3566 888 3137 398 
Q 2709 -91 1959 -91 
Q 1206 -91 779 398 
Q 353 888 353 1747 
Q 353 2609 779 3096 
Q 1206 3584 1959 3584 
z
" transform="scale(0.015625)"/>
      <path id="DejaVuSans-6e" d="M 3513 2113 
L 3513 0 
L 2938 0 
L 2938 2094 
Q 2938 2591 2744 2837 
Q 2550 3084 2163 3084 
Q 1697 3084 1428 2787 
Q 1159 2491 1159 1978 
L 1159 0 
L 581 0 
L 581 3500 
L 1159 3500 
L 1159 2956 
Q 1366 3272 1645 3428 
Q 1925 3584 2291 3584 
Q 2894 3584 3203 3211 
Q 3513 2838 3513 2113 
z
" transform="scale(0.015625)"/>
      <path id="DejaVuSans-44" d="M 1259 4147 
L 1259 519 
L 2022 519 
Q 2988 519 3436 956 
Q 3884 1394 3884 2338 
Q 3884 3275 3436 3711 
Q 2988 4147 2022 4147 
L 1259 4147 
z
M 628 4666 
L 1925 4666 
Q 3281 4666 3915 4102 
Q 4550 3538 4550 2338 
Q 4550 1131 3912 565 
Q 3275 0 1925 0 
L 628 0 
L 628 4666 
z
" transform="scale(0.015625)"/>
      <path id="DejaVuSans-62" d="M 3116 1747 
Q 3116 2381 2855 2742 
Q 2594 3103 2138 3103 
Q 1681 3103 1420 2742 
Q 1159 2381 1159 1747 
Q 1159 1113 1420 752 
Q 1681 391 2138 391 
Q 2594 391 2855 752 
Q 3116 1113 3116 1747 
z
M 1159 2969 
Q 1341 3281 1617 3432 
Q 1894 3584 2278 3584 
Q 2916 3584 3314 3078 
Q 3713 2572 3713 1747 
Q 3713 922 3314 415 
Q 2916 -91 2278 -91 
Q 1894 -91 1617 61 
Q 1341 213 1159 525 
L 1159 0 
L 581 0 
L 581 4863 
L 1159 4863 
L 1159 2969 
z
" transform="scale(0.015625)"/>
      <path id="DejaVuSans-79" d="M 2059 -325 
Q 1816 -950 1584 -1140 
Q 1353 -1331 966 -1331 
L 506 -1331 
L 506 -850 
L 844 -850 
Q 1081 -850 1212 -737 
Q 1344 -625 1503 -206 
L 1606 56 
L 191 3500 
L 800 3500 
L 1894 763 
L 2988 3500 
L 3597 3500 
L 2059 -325 
z
" transform="scale(0.015625)"/>
     </defs>
     <use xlink:href="#DejaVuSans-43"/>
     <use xlink:href="#DejaVuSans-6c" x="69.824219"/>
     <use xlink:href="#DejaVuSans-61" x="97.607422"/>
     <use xlink:href="#DejaVuSans-69" x="158.886719"/>
     <use xlink:href="#DejaVuSans-6d" x="186.669922"/>
     <use xlink:href="#DejaVuSans-20" x="284.082031"/>
     <use xlink:href="#DejaVuSans-41" x="315.869141"/>
     <use xlink:href="#DejaVuSans-6d" x="384.277344"/>
     <use xlink:href="#DejaVuSans-6f" x="481.689453"/>
     <use xlink:href="#DejaVuSans-75" x="542.871094"/>
     <use xlink:href="#DejaVuSans-6e" x="606.25"/>
     <use xlink:href="#DejaVuSans-74" x="669.628906"/>
     <use xlink:href="#DejaVuSans-20" x="708.837891"/>
     <use xlink:href="#DejaVuSans-44" x="740.625"/>
     <use xlink:href="#DejaVuSans-69" x="817.626953"/>
     <use xlink:href="#DejaVuSans-73" x="845.410156"/>
     <use xlink:href="#DejaVuSans-74" x="897.509766"/>
     <use xlink:href="#DejaVuSans-72" x="936.71875"/>
     <use xlink:href="#DejaVuSans-69" x="977.832031"/>
     <use xlink:href="#DejaVuSans-62" x="1005.615234"/>
     <use xlink:href="#DejaVuSans-75" x="1069.091797"/>
     <use xlink:href="#DejaVuSans-74" x="1132.470703"/>
     <use xlink:href="#DejaVuSans-69" x="1171.679688"/>
     <use xlink:href="#DejaVuSans-6f" x="1199.462891"/>
     <use xlink:href="#DejaVuSans-6e" x="1260.644531"/>
     <use xlink:href="#DejaVuSans-20" x="1324.023438"/>
     <use xlink:href="#DejaVuSans-62" x="1355.810547"/>
     <use xlink:href="#DejaVuSans-79" x="1419.287109"/>
     <use xlink:href="#DejaVuSans-20" x="1478.466797"/>
     <use xlink:href="#DejaVuSans-43" x="1510.253906"/>
     <use xlink:href="#DejaVuSans-6c" x="1580.078125"/>
     <use xlink:href="#DejaVuSans-75" x="1607.861328"/>
     <use xlink:href="#DejaVuSans-73" x="1671.240234"/>
     <use xlink:href="#DejaVuSans-74" x="1723.339844"/>
     <use xlink:href="#DejaVuSans-65" x="1762.548828"/>
     <use xlink:href="#DejaVuSans-72" x="1824.072266"/>
    </g>
   </g>
  </g>
 </g>
 <defs>
  <clipPath id="pe61a4fe392">
   <rect x="72" y="43.2" width="446.4" height="277.2"/>
  </clipPath>
 </defs>
</svg>
